<?xml version="1.0" standalone="no"?>
<!DOCTYPE svg PUBLIC "-//W3C//DTD SVG 20010904//EN"
 "http://www.w3.org/TR/2001/REC-SVG-20010904/DTD/svg10.dtd">
<svg version="1.0" xmlns="http://www.w3.org/2000/svg"
 width="700.000000pt" height="700.000000pt" viewBox="0 0 700.000000 700.000000"
 preserveAspectRatio="xMidYMid meet">
<metadata>
Created by potrace 1.14, written by Peter Selinger 2001-2017
</metadata>
<g transform="translate(0.000000,700.000000) scale(0.100000,-0.100000)"
fill="#000000" stroke="none">
<path d="M2680 6940 c-127 -22 -180 -35 -285 -72 -44 -16 -84 -30 -90 -31 -5
-2 -50 -22 -99 -45 -221 -104 -376 -241 -595 -525 l-83 -107 -526 -1 c-290 0
-536 -2 -547 -3 -179 -22 -321 -119 -399 -274 -58 -115 -55 38 -55 -2417 l0
-2260 25 -72 c29 -90 62 -143 128 -208 59 -59 175 -119 255 -133 75 -14 2583
-13 2648 0 81 17 185 73 246 132 62 62 96 115 129 202 l23 59 2 2255 c1 1468
-2 2274 -8 2310 -38 206 -220 378 -429 404 -19 3 -273 5 -563 5 l-529 1 34 43
c97 124 244 258 338 310 72 39 218 82 356 104 93 15 334 9 396 -10 293 -89
644 -397 940 -822 171 -245 322 -550 335 -677 9 -81 9 -507 0 -618 -12 -139
-16 -184 -22 -210 -3 -14 -8 -43 -11 -65 -5 -33 -21 -114 -39 -195 -29 -131
-111 -427 -182 -655 -14 -44 -26 -87 -28 -95 -5 -22 -53 -190 -64 -225 -12
-35 -51 -190 -57 -224 -3 -12 -11 -51 -19 -85 -14 -62 -17 -77 -34 -176 -10
-56 -13 -78 -28 -185 -17 -125 -8 -853 12 -976 2 -13 6 -51 10 -84 4 -32 8
-62 10 -65 1 -3 6 -27 9 -55 4 -27 21 -106 37 -175 126 -514 386 -783 764
-789 56 -1 62 -4 85 -36 33 -45 102 -96 170 -125 77 -33 207 -37 286 -10 138
48 238 150 278 284 23 75 19 183 -8 259 -28 78 -90 164 -144 199 -79 52 -91
58 -162 75 -166 39 -357 -38 -448 -182 -28 -45 -62 -130 -62 -158 0 -15 -6
-17 -47 -12 -45 6 -149 50 -183 78 -40 32 -119 140 -152 207 -58 121 -111 303
-133 460 -3 25 -8 52 -10 60 -2 8 -6 47 -10 85 -3 39 -8 86 -10 105 -22 195
-21 710 1 855 8 57 12 84 19 135 17 127 97 439 190 750 87 288 133 453 171
604 18 77 35 141 37 143 2 2 9 -30 16 -69 19 -110 54 -242 153 -588 50 -173
99 -344 109 -380 10 -36 30 -105 44 -155 15 -49 30 -103 35 -120 22 -83 84
-292 112 -380 142 -443 327 -664 643 -764 52 -17 138 -37 240 -57 62 -12 301
-12 358 0 57 12 61 12 113 -15 127 -67 253 -69 384 -6 155 73 250 239 236 409
-10 118 -51 203 -133 278 -218 200 -551 131 -676 -140 -25 -54 -30 -81 -33
-155 l-4 -90 -62 -1 c-57 -1 -133 6 -221 21 -17 4 -74 20 -126 37 -212 71
-326 218 -441 568 -27 83 -52 161 -54 173 -5 23 -112 397 -173 602 -19 66 -41
143 -49 170 -7 28 -20 73 -28 100 -8 28 -33 113 -55 190 -21 77 -42 147 -45
155 -3 8 -8 32 -11 54 -3 21 -7 41 -9 45 -2 3 -7 22 -10 41 -3 19 -10 60 -16
90 -7 30 -13 69 -16 85 -2 17 -7 44 -10 60 -3 17 -7 48 -10 70 -2 22 -6 49 -9
60 -2 11 -16 99 -30 195 -22 151 -32 211 -61 360 -12 64 -47 195 -79 295 -19
61 -44 162 -55 225 -55 297 -192 577 -418 860 -84 105 -300 326 -402 411 -35
30 -76 64 -90 77 -123 112 -332 202 -540 231 -104 15 -334 10 -450 -9z m275
-1386 c20 -15 20 -27 20 -1176 0 -1113 0 -1162 -18 -1185 l-18 -23 -1208 0
c-1027 0 -1210 2 -1227 14 -19 14 -19 38 -20 1181 -2 1130 -1 1168 17 1186 18
18 58 19 1227 19 1061 -1 1209 -2 1227 -16z m-1050 -2869 c190 -40 346 -142
455 -297 48 -68 103 -185 115 -243 19 -95 23 -139 19 -215 -4 -97 -8 -125 -31
-195 -85 -266 -323 -470 -594 -509 -115 -17 -283 -1 -364 33 -82 35 -106 48
-155 79 -52 34 -162 139 -203 193 -33 44 -95 183 -112 252 -62 255 14 520 201
704 60 58 201 153 227 153 7 0 17 4 23 9 9 10 65 26 139 41 67 13 206 10 280
-5z"/>
<path d="M1637 2564 c-229 -44 -423 -230 -483 -464 -22 -86 -15 -250 15 -333
53 -151 177 -293 311 -359 368 -179 790 27 881 430 11 52 14 170 5 217 -12 62
-15 71 -35 126 -66 176 -225 319 -414 374 -75 22 -195 26 -280 9z m218 -442
c144 -105 190 -143 190 -159 0 -17 -41 -51 -165 -142 -91 -66 -170 -124 -176
-129 -24 -21 -51 -30 -64 -22 -12 8 -15 57 -16 282 0 265 4 308 29 308 7 0 98
-62 202 -138z"/>
</g>
</svg>
